<svg width="79" height="80" viewBox="0 0 79 80" fill="none" xmlns="http://www.w3.org/2000/svg">
<path d="M74.5152 0H4.48482C2.01457 0 0 2.04007 0 4.54159V75.4584C0 77.9599 2.01457 80 4.48482 80H74.5152C76.9854 80 79 77.9599 79 75.4584V4.54159C79 2.04007 76.9854 0 74.5152 0ZM29.595 46.7031H29.2593V67.6381C29.2593 68.391 28.6597 68.9982 27.9162 68.9982H15.8767C15.1333 68.9982 14.5337 68.391 14.5577 67.6381V12.3619C14.5577 11.609 15.1573 11.0018 15.9007 11.0018H27.9402C28.6837 11.0018 29.2832 11.609 29.2832 12.3619V33.4426H29.619C33.2404 33.4426 36.1664 36.4056 36.1664 40.0729C36.1664 43.7401 33.2165 46.7031 29.595 46.7031ZM64.4423 67.6381C64.4423 68.391 63.8427 68.9982 63.0993 68.9982H51.0598C50.3163 68.9982 49.7168 68.391 49.7168 67.6381V46.7031H49.405C45.7835 46.7031 42.8576 43.7401 42.8576 40.0729C42.8576 36.4056 45.7835 33.4426 49.405 33.4426H49.7407V12.3619C49.7407 11.609 50.3403 11.0018 51.0838 11.0018H63.1233C63.8667 11.0018 64.4663 11.609 64.4663 12.3619V67.6381H64.4423Z" fill="#FD0054"/>
</svg>
