<svg width="212" height="24" viewBox="0 0 212 24" fill="none" xmlns="http://www.w3.org/2000/svg">
<path d="M12.0353 23.9412C9.85663 23.9985 7.70174 23.4774 5.79008 22.4309C4.01179 21.4474 2.54215 19.9887 1.54555 18.2177C0.654248 16.5452 0.135594 14.6995 0.0252174 12.8075C-0.0851595 10.9156 0.21536 9.02209 0.906129 7.25726C1.48828 5.8347 2.35919 4.54839 3.46383 3.47958C4.59591 2.40545 5.92905 1.56556 7.38668 1.00818C8.95403 0.407079 10.6194 0.102461 12.2981 0.109842C13.9129 0.108983 15.5122 0.424848 17.0055 1.03956C18.4822 1.62057 19.7979 2.54748 20.8421 3.7424L17.2095 7.86923C16.6002 7.18066 15.8703 6.60903 15.0558 6.18241C14.1825 5.7477 13.2142 5.53866 12.2392 5.57437C11.1421 5.55273 10.0589 5.82352 9.10096 6.35894C8.16556 6.88629 7.39229 7.65956 6.86494 8.59497C6.28813 9.65548 5.99745 10.8479 6.02152 12.0549C6.02152 14.0164 6.63349 15.5855 7.85349 16.7349C9.0735 17.8843 10.7015 18.4766 12.7061 18.4766C13.688 18.4806 14.6593 18.2732 15.5541 17.8686C16.3926 17.4929 17.1446 16.948 17.7626 16.2681L20.6145 20.7754C19.9743 21.4465 19.2265 22.006 18.402 22.4309C17.4335 22.929 16.4089 23.3095 15.3501 23.5646C14.2694 23.8451 13.1555 23.9771 12.0392 23.9568" fill="black"/>
<path d="M35.6665 18.4217C36.7534 18.448 37.8241 18.1547 38.746 17.5783C39.6532 17.0156 40.395 16.2223 40.8957 15.2795C41.414 14.257 41.6841 13.1268 41.6841 11.9804C41.6841 10.834 41.414 9.70376 40.8957 8.68126C40.4026 7.74119 39.6584 6.95631 38.746 6.41386C38.0876 6.00658 37.3554 5.73319 36.5913 5.60937C35.8271 5.48555 35.0461 5.51375 34.2928 5.69231C33.5396 5.87087 32.8289 6.1963 32.2017 6.64997C31.5744 7.10363 31.0429 7.67659 30.6374 8.33605C30.5786 8.44981 30.4923 8.5675 30.4334 8.68126C29.9157 9.70943 29.647 10.8449 29.6489 11.9961C29.618 13.1404 29.8885 14.2727 30.4334 15.2795C30.9309 16.2159 31.662 17.0077 32.5557 17.5783C33.4904 18.1516 34.5702 18.4444 35.6665 18.4217ZM35.6665 23.9412C34.0234 23.9642 32.3923 23.6588 30.8689 23.0428C29.4435 22.4846 28.1481 21.6394 27.063 20.5597C25.9779 19.48 25.1263 18.1888 24.5609 16.7663C23.9599 15.2494 23.655 13.6315 23.6626 12C23.6421 10.3584 23.9474 8.72906 24.5609 7.20629C25.1251 5.77939 25.976 4.48339 27.061 3.39841C28.146 2.31343 29.442 1.46254 30.8689 0.898336C33.9656 -0.294176 37.3949 -0.294176 40.4916 0.898336C41.9209 1.45845 43.219 2.30789 44.3045 3.39338C45.39 4.47888 46.2395 5.777 46.7996 7.20629C47.9881 10.2727 47.9881 13.6724 46.7996 16.7388C46.2348 18.1653 45.3837 19.461 44.2987 20.5459C43.2138 21.6308 41.9182 22.4819 40.4916 23.0467C38.9636 23.6798 37.32 23.9859 35.6665 23.9451" fill="black"/>
<path d="M59.1408 12.3452L58.1248 15.0912H63.1539L62.1065 12.2981C61.875 11.5999 61.6122 10.8742 61.3808 10.1484C61.1493 9.4227 60.8865 8.69305 60.6825 7.93986C60.451 8.66559 60.2471 9.36385 59.9842 10.0896C59.7214 10.8153 59.4311 11.5449 59.1408 12.357V12.3452ZM49.1415 23.6352L58.2503 0.623734H63.1931L72.2157 23.643H66.2726L64.7309 19.4534H56.4929L54.9512 23.6391L49.1415 23.6352Z" fill="black"/>
<path d="M85.7181 23.9412C83.536 23.9876 81.3804 23.4572 79.469 22.4034C77.6912 21.4176 76.2218 19.9577 75.2245 18.1863C74.335 16.5139 73.8174 14.669 73.707 12.778C73.5967 10.8869 73.8962 8.99437 74.5851 7.22982C75.1686 5.80801 76.0394 4.52194 77.1428 3.45211C78.2745 2.37749 79.6077 1.53754 81.0656 0.980706C82.6321 0.376138 84.298 0.0701103 85.977 0.0784433C87.5917 0.0790005 89.1908 0.394824 90.6845 1.00817C92.1604 1.59054 93.4758 2.51722 94.521 3.71101L90.861 7.86922C90.2517 7.18065 89.5218 6.60902 88.7073 6.1824C87.8338 5.74816 86.8656 5.53915 85.8907 5.57436C84.7936 5.55272 83.7104 5.82351 82.7525 6.35893C81.8171 6.88628 81.0438 7.65956 80.5164 8.59496C79.9377 9.65475 79.6469 10.8477 79.673 12.0549C79.673 14.0163 80.2811 15.5855 81.505 16.7349C82.7289 17.8843 84.353 18.4766 86.3576 18.4766C87.3395 18.4806 88.3108 18.2732 89.2056 17.8686C90.0442 17.4929 90.7961 16.948 91.4141 16.2681L94.2621 20.7754C93.6233 21.4464 92.8768 22.006 92.0535 22.4309C91.0848 22.9285 90.0603 23.309 89.0016 23.5645C87.9305 23.8467 86.8255 23.9787 85.7181 23.9568" fill="black"/>
<path d="M125.28 23.6234V0.604126H141.583V5.57438H131.003V9.55607H140.191V14.2949H131.003V18.6532H141.991V23.6234H125.28Z" fill="#E4CCB4"/>
<path d="M125.335 23.592C125.335 23.6234 125.307 23.6234 125.28 23.592V0.572739H141.642C141.674 0.572739 141.674 0.572745 141.674 0.604128V5.60184H131.082V9.49722H140.269V14.2635C140.269 14.291 140.183 14.2635 140.183 14.2635H131.082V18.6257H142.042C142.07 18.6257 142.042 18.6806 142.042 18.712V23.6509C142.042 23.6823 141.984 23.6509 141.956 23.6509H125.539C125.48 23.6531 125.422 23.6437 125.366 23.6234C125.221 23.592 125.28 23.592 125.366 23.592H141.933V18.712H130.976C130.917 18.7395 130.945 18.6806 130.945 18.6532V14.2635H140.132V9.6149H130.929V5.54298H141.521V0.659042H125.307V23.592H125.335Z" fill="#E7D2BC"/>
<path d="M147.484 23.6234V0.604126H153.415V18.4492H163.559V23.6234H147.484Z" fill="#E4CCB4"/>
<path d="M147.515 23.592C147.515 23.6234 147.484 23.6234 147.456 23.592V0.572739H153.442V18.4217H163.532C163.618 18.3903 163.587 18.508 163.587 18.5355V23.6823H147.746C147.687 23.683 147.629 23.6723 147.574 23.6509C147.429 23.6234 147.484 23.6234 147.574 23.6234H163.532V18.5237H153.387C153.356 18.5237 153.356 18.5237 153.356 18.4923V0.659042H147.515V23.592Z" fill="#E7D2BC"/>
<path d="M168.357 23.6234V0.604126H174.284V18.4492H184.429V23.6234H168.357Z" fill="#E4CCB4"/>
<path d="M168.384 23.592C168.384 23.6234 168.357 23.6234 168.326 23.592V0.572739H174.316V18.4217H184.401C184.488 18.3903 184.456 18.508 184.456 18.508V23.6509H168.616C168.557 23.6513 168.499 23.642 168.443 23.6234C168.298 23.592 168.357 23.592 168.443 23.592H184.401V18.4923H174.257C174.249 18.4923 174.241 18.489 174.235 18.4831C174.229 18.4772 174.226 18.4693 174.226 18.4609V0.659042H168.384V23.592Z" fill="#E7D2BC"/>
<path d="M199.187 18.4217C200.274 18.448 201.344 18.1547 202.266 17.5783C203.173 17.0156 203.915 16.2223 204.416 15.2795C204.961 14.2727 205.231 13.1404 205.2 11.9961C205.22 10.8429 204.951 9.70309 204.416 8.68126C203.923 7.74119 203.179 6.95631 202.266 6.41386C201.608 6.00658 200.876 5.73319 200.111 5.60937C199.347 5.48555 198.566 5.51375 197.813 5.69231C197.06 5.87087 196.349 6.1963 195.722 6.64997C195.095 7.10363 194.563 7.67659 194.158 8.33605C194.099 8.44981 194.012 8.5675 193.954 8.68126C193.436 9.70943 193.167 10.8449 193.169 11.9961C193.138 13.1404 193.409 14.2727 193.954 15.2795C194.451 16.2159 195.182 17.0077 196.076 17.5783C197.007 18.1587 198.089 18.4521 199.187 18.4217ZM199.187 23.9412C197.543 23.9671 195.912 23.6616 194.389 23.0428C192.964 22.4846 191.668 21.6394 190.583 20.5597C189.498 19.48 188.646 18.1888 188.081 16.7663C187.473 15.2508 187.162 13.6328 187.163 12C187.143 10.3584 187.448 8.72906 188.061 7.20629C188.626 5.77939 189.477 4.48339 190.562 3.39841C191.646 2.31343 192.942 1.46254 194.369 0.898336C197.466 -0.294176 200.895 -0.294176 203.992 0.898336C205.419 1.46254 206.715 2.31343 207.8 3.39841C208.885 4.48339 209.736 5.77939 210.3 7.20629C211.489 10.2727 211.489 13.6724 210.3 16.7388C209.73 18.1625 208.878 19.4557 207.793 20.54C206.709 21.6243 205.416 22.4771 203.992 23.0467C202.463 23.6774 200.82 23.9833 199.167 23.9451" fill="#E4CCB4"/>
<path d="M199.187 18.4766C199.159 18.4766 199.159 18.4492 199.187 18.4217H199.579C199.912 18.4006 200.243 18.352 200.568 18.2766C201.244 18.1262 201.885 17.8494 202.458 17.4606C203.698 16.5985 204.585 15.3186 204.957 13.8555C205.143 13.0856 205.212 12.2922 205.161 11.5018C205.112 10.7004 204.925 9.91342 204.608 9.17554C204.272 8.43164 203.787 7.76421 203.184 7.21412C202.576 6.65381 201.851 6.23574 201.062 5.99019C200.27 5.75964 199.444 5.67198 198.622 5.73129C197.804 5.78723 197.01 6.0244 196.296 6.42562C195.603 6.81706 194.997 7.34672 194.518 7.98171C194.038 8.61671 193.694 9.34351 193.506 10.117C193.312 10.8469 193.234 11.6028 193.275 12.357C193.301 13.0798 193.433 13.7949 193.667 14.4792C194.104 15.7391 194.942 16.8209 196.052 17.5587C196.544 17.8755 197.083 18.1113 197.649 18.257C197.917 18.3233 198.19 18.3717 198.465 18.4021C198.594 18.4283 198.726 18.4388 198.857 18.4335H198.944L199.12 18.4609C199.234 18.4884 199.206 18.4884 199.12 18.4884H198.885L198.536 18.4609C197.412 18.3751 196.344 17.9372 195.484 17.2096C194.466 16.3554 193.736 15.2091 193.393 13.9261C193.211 13.2246 193.133 12.5004 193.161 11.7764C193.174 11.0241 193.306 10.2786 193.554 9.56783C193.824 8.83419 194.223 8.15423 194.73 7.55933C195.256 6.94841 195.912 6.46202 196.649 6.13533C197.39 5.80515 198.191 5.6277 199.002 5.61359C199.825 5.58427 200.644 5.71758 201.415 6.00587C202.186 6.30446 202.882 6.77077 203.451 7.37104C204.014 7.95857 204.458 8.65007 204.757 9.407C205.042 10.1603 205.2 10.9557 205.224 11.7607C205.253 12.5449 205.164 13.329 204.961 14.087C204.556 15.5394 203.636 16.7945 202.372 17.6175C201.789 17.9948 201.137 18.2522 200.454 18.3746C200.126 18.4298 199.797 18.4678 199.465 18.4884H199.187V18.4766Z" fill="#E7D2BC"/>
<path d="M199.136 23.9137C199.167 23.9137 199.195 23.9412 199.136 23.9725H198.496C197.852 23.9377 197.212 23.8604 196.578 23.7411C195.239 23.4832 193.952 23.0018 192.773 22.3171C191.533 21.5929 190.446 20.635 189.572 19.4966C188.669 18.3073 188.003 16.9555 187.61 15.5149C187.204 14.0198 187.071 12.4636 187.218 10.9212C187.332 9.34568 187.746 7.80646 188.438 6.3864C189.139 4.94262 190.152 3.67247 191.404 2.66754C192.652 1.64961 194.101 0.906393 195.656 0.486427C197.221 0.080834 198.844 -0.0518723 200.454 0.0941418C202.056 0.220821 203.616 0.666283 205.043 1.40437C206.451 2.12381 207.691 3.1332 208.68 4.36612C209.636 5.57416 210.346 6.95742 210.771 8.43804C211.173 9.86449 211.331 11.3486 211.238 12.8277C211.176 14.2477 210.861 15.6452 210.308 16.9546C209.788 18.1924 209.059 19.3321 208.154 20.3243C207.306 21.2478 206.302 22.0153 205.189 22.5917C204.168 23.1415 203.073 23.5381 201.937 23.7685C201.408 23.8745 200.873 23.9518 200.336 24C200.084 24.0224 199.832 24.0315 199.579 24.0274H199.465C199.405 24.0279 199.346 24.0187 199.289 24C199.144 24 199.202 23.9686 199.289 23.9686L199.493 23.9412H199.524L200.163 23.9137C201.181 23.8602 202.187 23.6743 203.157 23.3606C204.231 23.0066 205.257 22.5175 206.209 21.9052C207.226 21.2186 208.12 20.3644 208.853 19.3789C209.642 18.3282 210.242 17.1481 210.626 15.8915C211.027 14.5523 211.213 13.1582 211.179 11.7607C211.151 10.3036 210.886 8.86077 210.394 7.48872C209.867 6.07085 209.056 4.77587 208.009 3.68355C206.943 2.56126 205.657 1.67059 204.231 1.06701C202.783 0.464256 201.237 0.129304 199.669 0.078447C198.084 0.0144618 196.499 0.230928 194.989 0.717874C193.48 1.21636 192.092 2.02775 190.917 3.09905C189.753 4.15887 188.827 5.45473 188.203 6.90029C187.589 8.32588 187.253 9.85587 187.214 11.4076C187.151 12.9165 187.353 14.4247 187.81 15.864C188.256 17.2646 188.966 18.5669 189.901 19.7006C190.81 20.7749 191.901 21.6794 193.126 22.372C194.297 23.008 195.564 23.4504 196.876 23.6823C197.5 23.7961 198.133 23.8538 198.767 23.8548H199.03L199.136 23.9137Z" fill="#E7D2BC"/>
<path d="M104.815 9.52468H104.669V1.15331C104.669 1.08086 104.655 1.00913 104.627 0.942238C104.599 0.875349 104.559 0.814636 104.507 0.763586C104.456 0.712537 104.395 0.67216 104.328 0.644792C104.261 0.617424 104.189 0.603607 104.116 0.604125H99.2913C99.1456 0.604125 99.0059 0.66198 98.9029 0.764975C98.7999 0.86797 98.7421 1.00765 98.7421 1.15331V23.1017C98.7421 23.2473 98.7999 23.387 98.9029 23.49C99.0059 23.593 99.1456 23.6509 99.2913 23.6509H104.116C104.262 23.6509 104.402 23.5931 104.506 23.4903C104.61 23.3874 104.668 23.2477 104.669 23.1017V14.7852H104.815C105.495 14.7589 106.138 14.4704 106.61 13.98C107.082 13.4896 107.345 12.8355 107.345 12.155C107.345 11.4744 107.082 10.8204 106.61 10.33C106.138 9.83956 105.495 9.55095 104.815 9.52468Z" fill="black"/>
<path d="M112.884 1.15331V9.52468H112.739C112.045 9.52468 111.379 9.80036 110.889 10.2911C110.398 10.7818 110.122 11.4473 110.122 12.1412C110.122 12.8352 110.398 13.5007 110.889 13.9914C111.379 14.4821 112.045 14.7578 112.739 14.7578H112.884V23.0703C112.884 23.217 112.942 23.3577 113.046 23.4614C113.15 23.5651 113.29 23.6234 113.437 23.6234H118.262C118.409 23.6234 118.549 23.5651 118.653 23.4614C118.757 23.3577 118.815 23.217 118.815 23.0703V1.15331C118.814 1.00729 118.755 0.86762 118.652 0.764737C118.548 0.661853 118.408 0.604122 118.262 0.604126H113.417C113.276 0.60924 113.142 0.6696 113.044 0.772267C112.947 0.874933 112.894 1.01172 112.896 1.15331" fill="#E4CCB4"/>
<path d="M112.884 1.1847C112.884 1.15331 112.911 1.15331 112.939 1.1847V9.58353H112.621C112.182 9.60373 111.755 9.73612 111.382 9.96808C111.008 10.2 110.7 10.5238 110.487 10.9085C110.275 11.2933 110.164 11.7261 110.166 12.1658C110.168 12.6054 110.283 13.0373 110.499 13.4201C110.8 13.9735 111.299 14.3935 111.895 14.5969C112.118 14.6867 112.354 14.7358 112.594 14.7421H112.853C112.884 14.7421 112.939 14.7421 112.911 14.7695V23.1683C112.923 23.2802 112.973 23.3847 113.052 23.4646C113.131 23.5444 113.235 23.5949 113.347 23.6077H118.231C118.339 23.6093 118.446 23.5764 118.535 23.5136C118.624 23.4509 118.69 23.3616 118.725 23.2586C118.748 23.1437 118.757 23.0265 118.753 22.9094V1.2553C118.764 1.14508 118.745 1.03386 118.698 0.933639C118.645 0.835152 118.565 0.754736 118.466 0.702935C118.367 0.651134 118.255 0.630357 118.144 0.64334H113.621C113.504 0.638959 113.387 0.648177 113.272 0.670803C113.167 0.696162 113.075 0.758934 113.013 0.847336L112.982 0.874799C112.95 0.928865 112.93 0.989014 112.923 1.05133C112.896 1.16509 112.896 1.13763 112.896 1.05133C112.901 0.979919 112.921 0.910361 112.955 0.847336L112.982 0.815946C113.013 0.788486 113.013 0.761033 113.041 0.761033C113.082 0.714123 113.131 0.674358 113.186 0.64334C113.296 0.595359 113.416 0.575152 113.535 0.5845H118.301C118.42 0.582693 118.536 0.620195 118.631 0.691155C118.726 0.762115 118.795 0.862544 118.827 0.976785C118.85 1.09169 118.859 1.20886 118.854 1.32591V23.1252C118.845 23.2467 118.798 23.3623 118.72 23.4558C118.642 23.5494 118.537 23.6162 118.419 23.6469C118.305 23.6729 118.187 23.6835 118.07 23.6783H113.668C113.551 23.6836 113.434 23.6731 113.319 23.6469C113.204 23.6118 113.101 23.5437 113.024 23.4511C112.946 23.3584 112.898 23.2451 112.884 23.1252V14.8166H112.621C112.372 14.8131 112.126 14.7639 111.895 14.6715C111.566 14.5539 111.264 14.3725 111.005 14.1378C110.747 13.903 110.537 13.6195 110.388 13.3035C110.24 12.9874 110.155 12.6451 110.139 12.2962C110.123 11.9473 110.176 11.5987 110.295 11.2704C110.5 10.6678 110.919 10.1613 111.472 9.84636C111.706 9.70743 111.962 9.60928 112.229 9.55607C112.374 9.52469 112.488 9.52468 112.621 9.49722H112.856L112.884 1.1847Z" fill="#E7D2BC"/>
</svg>
