<svg width="72" height="72" viewBox="0 0 72 72" fill="none" xmlns="http://www.w3.org/2000/svg">
<g opacity="0.16">
<path fill-rule="evenodd" clip-rule="evenodd" d="M30.492 6.98841C31.0255 6.72109 31.6433 6.67664 32.2096 6.86483C32.7758 7.05302 33.2441 7.45844 33.5115 7.99191L47.0115 34.9919C47.1683 35.3048 47.2499 35.6499 47.2499 35.9999C47.2499 36.3499 47.1683 36.695 47.0115 37.0079L33.5115 64.0079C33.3805 64.2744 33.1981 64.5123 32.9747 64.708C32.7514 64.9037 32.4915 65.0532 32.2101 65.1479C31.9286 65.2426 31.6312 65.2807 31.335 65.26C31.0388 65.2393 30.7496 65.1601 30.4842 65.0271C30.2187 64.894 29.9822 64.7098 29.7882 64.4849C29.5943 64.26 29.4468 63.999 29.3543 63.7168C29.2617 63.4347 29.2259 63.137 29.249 62.8409C29.272 62.5449 29.3534 62.2563 29.4885 61.9919L42.48 35.9999L29.4885 10.0079C29.2212 9.47443 29.1767 8.8566 29.3649 8.29034C29.5531 7.72408 29.9585 7.25576 30.492 6.98841V6.98841Z" fill="black"/>
</g>
</svg>
