<svg width="40" height="40" viewBox="0 0 40 40" fill="none" xmlns="http://www.w3.org/2000/svg">
<path d="M30 10H34C35.0609 10 36.0783 10.4214 36.8284 11.1716C37.5786 11.9217 38 12.9391 38 14V26C38 27.0609 37.5786 28.0783 36.8284 28.8284C36.0783 29.5786 35.0609 30 34 30H30V38L22 30H14C13.4747 30.0005 12.9544 29.8973 12.4691 29.6962C11.9837 29.495 11.543 29.2 11.172 28.828M11.172 28.828L18 22H26C27.0609 22 28.0783 21.5786 28.8284 20.8284C29.5786 20.0783 30 19.0609 30 18V6C30 4.93913 29.5786 3.92172 28.8284 3.17157C28.0783 2.42143 27.0609 2 26 2H6C4.93913 2 3.92172 2.42143 3.17157 3.17157C2.42143 3.92172 2 4.93913 2 6V18C2 19.0609 2.42143 20.0783 3.17157 20.8284C3.92172 21.5786 4.93913 22 6 22H10V30L11.172 28.828Z" stroke="black" stroke-width="3" stroke-linecap="round" stroke-linejoin="round"/>
</svg>
