<svg width="40" height="40" viewBox="0 0 40 40" fill="none" xmlns="http://www.w3.org/2000/svg">
<path d="M13.3682 22.684C13.7722 21.876 14.0002 20.964 14.0002 20C14.0002 19.036 13.7722 18.124 13.3682 17.316V22.684ZM13.3682 22.684C12.7636 23.8928 11.7686 24.862 10.5443 25.4347C9.32013 26.0074 7.93842 26.15 6.62304 25.8394C5.30767 25.5288 4.1357 24.7832 3.29698 23.7233C2.45827 22.6635 2.00195 21.3515 2.00195 20C2.00195 18.6484 2.45827 17.3365 3.29698 16.2766C4.1357 15.2168 5.30767 14.4712 6.62304 14.1606C7.93842 13.85 9.32013 13.9926 10.5443 14.5653C11.7686 15.138 12.7636 16.1072 13.3682 17.316V22.684ZM13.3682 22.684L26.6322 29.316L13.3682 22.684ZM13.3682 17.316L26.6322 10.684L13.3682 17.316ZM26.6322 10.684C26.9846 11.3888 27.4725 12.0173 28.0678 12.5335C28.6632 13.0498 29.3544 13.4438 30.102 13.6929C30.8496 13.942 31.6389 14.0415 32.425 13.9856C33.211 13.9296 33.9784 13.7195 34.6832 13.367C35.388 13.0145 36.0164 12.5267 36.5327 11.9313C37.049 11.336 37.4429 10.6448 37.6921 9.89715C37.9412 9.14955 38.0407 8.36019 37.9847 7.57415C37.9288 6.78812 37.7186 6.02079 37.3662 5.31598C36.6543 3.89257 35.4062 2.81023 33.8963 2.30707C32.3865 1.80391 30.7386 1.92114 29.3152 2.63298C27.8917 3.34483 26.8094 4.59296 26.3062 6.10282C25.8031 7.61267 25.9203 9.26057 26.6322 10.684V10.684ZM26.6322 29.316C25.9203 30.7397 25.8032 32.3878 26.3065 33.8979C26.8099 35.4079 27.8925 36.6561 29.3162 37.368C30.7398 38.0798 32.388 38.197 33.898 37.6936C35.4081 37.1903 36.6563 36.1077 37.3682 34.684C38.08 33.2603 38.1971 31.6122 37.6938 30.1021C37.1904 28.5921 36.1078 27.3438 34.6842 26.632C33.9792 26.2795 33.2118 26.0693 32.4256 26.0135C31.6394 25.9576 30.85 26.0571 30.1023 26.3064C28.5922 26.8097 27.344 27.8923 26.6322 29.316V29.316Z" stroke="black" stroke-width="3" stroke-linecap="round" stroke-linejoin="round"/>
</svg>
