<svg width="36" height="40" viewBox="0 0 36 40" fill="none" xmlns="http://www.w3.org/2000/svg">
<path d="M18 26V30V26ZM6 38H30C31.0609 38 32.0783 37.5786 32.8284 36.8284C33.5786 36.0783 34 35.0609 34 34V22C34 20.9391 33.5786 19.9217 32.8284 19.1716C32.0783 18.4214 31.0609 18 30 18H6C4.93913 18 3.92172 18.4214 3.17157 19.1716C2.42143 19.9217 2 20.9391 2 22V34C2 35.0609 2.42143 36.0783 3.17157 36.8284C3.92172 37.5786 4.93913 38 6 38ZM26 18V10C26 7.87827 25.1571 5.84344 23.6569 4.34315C22.1566 2.84285 20.1217 2 18 2C15.8783 2 13.8434 2.84285 12.3431 4.34315C10.8429 5.84344 10 7.87827 10 10V18H26Z" stroke="black" stroke-width="3" stroke-linecap="round" stroke-linejoin="round"/>
</svg>
