<svg width="42" height="40" viewBox="0 0 42 40" fill="none" xmlns="http://www.w3.org/2000/svg">
<path d="M19.0982 3.85397C19.6982 2.01197 22.3042 2.01197 22.9022 3.85397L25.9402 13.202C26.0709 13.6029 26.3251 13.9523 26.6663 14.2002C27.0076 14.448 27.4184 14.5817 27.8402 14.582H37.6702C39.6082 14.582 40.4122 17.062 38.8462 18.202L30.8942 23.978C30.5526 24.2263 30.2984 24.5764 30.168 24.978C30.0376 25.3797 30.0376 25.8124 30.1682 26.214L33.2042 35.562C33.8042 37.406 31.6942 38.938 30.1282 37.798L22.1762 32.022C21.8344 31.7735 21.4227 31.6397 21.0002 31.6397C20.5777 31.6397 20.166 31.7735 19.8242 32.022L11.8722 37.798C10.3062 38.938 8.19619 37.404 8.79619 35.562L11.8322 26.214C11.9627 25.8124 11.9628 25.3797 11.8324 24.978C11.702 24.5764 11.4478 24.2263 11.1062 23.978L3.15419 18.202C1.58619 17.062 2.39419 14.582 4.33019 14.582H14.1582C14.5803 14.5821 14.9916 14.4486 15.3332 14.2008C15.6749 13.9529 15.9293 13.6033 16.0602 13.202L19.0982 3.85397V3.85397Z" stroke="black" stroke-width="3" stroke-linecap="round" stroke-linejoin="round"/>
</svg>
