<svg width="36" height="36" viewBox="0 0 36 36" fill="none" xmlns="http://www.w3.org/2000/svg">
<path d="M3.164 12H2V1.99998L3.164 12ZM3.164 12C4.4917 8.71623 6.87136 5.96579 9.93006 4.1797C12.9888 2.3936 16.5536 1.6728 20.0659 2.13026C23.5783 2.58771 26.8396 4.19757 29.3387 6.70753C31.8379 9.21749 33.4337 12.4857 33.876 16M3.164 12H12M32.838 24H34V34L32.838 24ZM32.838 24C31.5084 27.2818 29.1281 30.0301 26.0697 31.8146C23.0113 33.5991 19.4475 34.319 15.9362 33.8617C12.4249 33.4044 9.1644 31.7957 6.66507 29.2874C4.16574 26.7791 2.56871 23.5129 2.124 20M32.838 24H24" stroke="black" stroke-width="3" stroke-linecap="round" stroke-linejoin="round"/>
</svg>
