<svg width="48" height="48" viewBox="0 0 48 48" fill="none" xmlns="http://www.w3.org/2000/svg">
<path d="M27.6 18.6V11.4C27.6 10.6909 27.4603 9.98867 27.1889 9.33351C26.9176 8.67835 26.5198 8.08306 26.0184 7.58162C25.5169 7.08019 24.9216 6.68243 24.2665 6.41105C23.6113 6.13967 22.9091 6 22.2 6L15 22.2V42H35.916C36.7842 42.0098 37.6267 41.7055 38.2882 41.1432C38.9498 40.5809 39.3858 39.7984 39.516 38.94L42 22.74C42.0783 22.224 42.0435 21.6972 41.898 21.1961C41.7525 20.6949 41.4998 20.2313 41.1573 19.8375C40.8149 19.4437 40.3909 19.1291 39.9148 18.9154C39.4387 18.7017 38.9218 18.5941 38.4 18.6H27.6V18.6ZM15 22H10.194C8.085 21.963 6.283 23.71 6 25.8V38.4C6.13657 39.4097 6.63913 40.3341 7.41226 40.9977C8.18539 41.6614 9.17527 42.018 10.194 42H15V22Z" stroke="black" stroke-width="3" stroke-linejoin="round"/>
</svg>
