<svg width="39" height="36" viewBox="0 0 39 36" fill="none" xmlns="http://www.w3.org/2000/svg">
<g clip-path="url(#clip0_153_684)">
<path d="M26.8965 13.4513H36.8567C37.7979 13.4513 38.5606 14.2142 38.5606 15.1552V24.2276C38.5606 27.6861 35.757 30.4898 32.2986 30.4898H32.2689C28.8105 30.4903 26.0064 27.6871 26.006 24.2285V14.342C26.006 14.225 26.029 14.1092 26.0737 14.0011C26.1185 13.8931 26.1841 13.7949 26.2668 13.7122C26.3494 13.6295 26.4476 13.5639 26.5557 13.5191C26.6637 13.4743 26.7795 13.4513 26.8965 13.4513Z" fill="#5059C9"/>
<path d="M33.6285 11.658C35.8572 11.658 37.6639 9.85123 37.6639 7.6225C37.6639 5.39378 35.8572 3.58704 33.6285 3.58704C31.3998 3.58704 29.593 5.39378 29.593 7.6225C29.593 9.85123 31.3998 11.658 33.6285 11.658Z" fill="#5059C9"/>
<path d="M21.0739 11.658C24.2931 11.658 26.9028 9.04825 26.9028 5.82899C26.9028 2.60973 24.2931 0 21.0739 0C17.8546 0 15.2449 2.60973 15.2449 5.82899C15.2449 9.04825 17.8546 11.658 21.0739 11.658Z" fill="#7B83EB"/>
<path d="M28.846 13.4513H12.4049C11.4751 13.4743 10.7396 14.246 10.7611 15.1758V25.5235C10.6313 31.1033 15.0457 35.7338 20.6254 35.8704C26.2051 35.7338 30.6195 31.1033 30.4898 25.5235V15.1758C30.5114 14.246 29.7759 13.4743 28.846 13.4513Z" fill="#7B83EB"/>
<path opacity="0.1" d="M21.5222 13.4513V27.9519C21.5201 28.2772 21.4219 28.5945 21.24 28.8641C21.0582 29.1338 20.8007 29.3437 20.4999 29.4675C20.3041 29.5504 20.0937 29.593 19.8812 29.593H11.5501C11.4335 29.297 11.326 29.001 11.2362 28.6963C10.9223 27.6673 10.7621 26.5975 10.761 25.5217V15.1731C10.7394 14.2448 11.4737 13.4743 12.402 13.4514H21.5221L21.5222 13.4513Z" fill="black"/>
<path opacity="0.2" d="M20.6255 13.4513V28.8488C20.6255 29.0613 20.5828 29.2717 20.5 29.4675C20.3762 29.7683 20.1663 30.0258 19.8966 30.2076C19.627 30.3895 19.3096 30.4877 18.9844 30.4898H11.9719C11.8195 30.1939 11.6759 29.8979 11.5505 29.593C11.4299 29.2999 11.3251 29.0006 11.2366 28.6963C10.9227 27.6673 10.7625 26.5975 10.7613 25.5217V15.1731C10.7398 14.2448 11.4741 13.4743 12.4024 13.4514H20.6256L20.6255 13.4513Z" fill="black"/>
<path opacity="0.2" d="M20.6254 13.4513V27.0552C20.6186 27.9587 19.8879 28.6895 18.9843 28.6963H11.2363C10.9224 27.6673 10.7623 26.5975 10.7611 25.5217V15.1731C10.7395 14.2448 11.4739 13.4743 12.4022 13.4514H20.6254V13.4513Z" fill="black"/>
<path opacity="0.2" d="M19.7287 13.4513V27.0552C19.7218 27.9587 18.9911 28.6895 18.0876 28.6963H11.2363C10.9224 27.6673 10.7623 26.5975 10.7611 25.5217V15.1731C10.7395 14.2448 11.4739 13.4743 12.4022 13.4514H19.7287V13.4513Z" fill="black"/>
<path opacity="0.1" d="M21.5223 8.81516V11.6399C21.3699 11.6489 21.2263 11.658 21.0739 11.658C20.9215 11.658 20.7779 11.6489 20.6255 11.6399C20.3228 11.6198 20.0226 11.5718 19.7288 11.4965C18.8335 11.2845 18.0012 10.8636 17.2998 10.2682C16.5984 9.6728 16.0479 8.91985 15.6933 8.07091C15.5696 7.78169 15.4735 7.48141 15.4064 7.17407H19.8812C20.786 7.17754 21.5188 7.91019 21.5223 8.81516Z" fill="black"/>
<path opacity="0.2" d="M20.6255 9.71186V11.6399C20.3228 11.6198 20.0226 11.5718 19.7288 11.4965C18.8336 11.2845 18.0012 10.8636 17.2999 10.2682C16.5985 9.67279 16.048 8.91985 15.6935 8.07092H18.9844C19.8894 8.07424 20.622 8.80704 20.6255 9.71186Z" fill="black"/>
<path opacity="0.2" d="M20.6255 9.71186V11.6399C20.3228 11.6198 20.0226 11.5718 19.7288 11.4965C18.8336 11.2845 18.0012 10.8636 17.2999 10.2682C16.5985 9.67279 16.048 8.91985 15.6935 8.07092H18.9844C19.8894 8.07424 20.622 8.80704 20.6255 9.71186Z" fill="black"/>
<path opacity="0.2" d="M19.7287 9.71189V11.4965C18.8334 11.2845 18.0011 10.8636 17.2997 10.2682C16.5983 9.67275 16.0478 8.91977 15.6932 8.0708H18.0876C18.9926 8.07427 19.7252 8.80707 19.7287 9.71189Z" fill="black"/>
<path d="M1.6438 8.07083H18.0848C18.9928 8.07083 19.7288 8.8068 19.7288 9.71463V26.1558C19.7288 27.0636 18.9928 27.7996 18.085 27.7996H1.6438C0.735967 27.7996 0 27.0636 0 26.1558V9.71478C0 8.80665 0.735967 8.07068 1.6438 8.07068V8.07083Z" fill="url(#paint0_linear_153_684)"/>
<path d="M14.1904 14.3284H10.9037V23.2781H8.80978V14.3284H5.53845V12.5923H14.1904V14.3284Z" fill="white"/>
</g>
<defs>
<linearGradient id="paint0_linear_153_684" x1="3.42728" y1="6.78633" x2="16.3016" y2="29.0838" gradientUnits="userSpaceOnUse">
<stop stop-color="#5A62C3"/>
<stop offset="0.5" stop-color="#4D55BD"/>
<stop offset="1" stop-color="#3940AB"/>
</linearGradient>
<clipPath id="clip0_153_684">
<rect width="38.5607" height="36" fill="white"/>
</clipPath>
</defs>
</svg>
