<svg width="108" height="86" viewBox="0 0 108 86" fill="none" xmlns="http://www.w3.org/2000/svg">
<path d="M9.68538 12.5575C17.168 4.44549 28.4907 0.333496 43.3334 0.333496H48.6667V15.3682L44.3787 16.2268C37.072 17.6882 31.9894 20.5628 29.2694 24.7815C27.8501 27.0542 27.0452 29.6564 26.9334 32.3335H43.3334C44.7479 32.3335 46.1044 32.8954 47.1046 33.8956C48.1048 34.8958 48.6667 36.2523 48.6667 37.6668V75.0002C48.6667 80.8828 43.8827 85.6668 38 85.6668H6.00005C4.58556 85.6668 3.229 85.1049 2.22881 84.1047C1.22862 83.1045 0.666714 81.748 0.666714 80.3335V53.6668L0.682714 38.0988C0.634714 37.5068 -0.378619 23.4802 9.68538 12.5575ZM96.6667 85.6668H64.6667C63.2522 85.6668 61.8957 85.1049 60.8955 84.1047C59.8953 83.1045 59.3334 81.748 59.3334 80.3335V53.6668L59.3494 38.0988C59.3014 37.5068 58.288 23.4802 68.352 12.5575C75.8347 4.44549 87.1574 0.333496 102 0.333496H107.333V15.3682L103.045 16.2268C95.7387 17.6882 90.6561 20.5628 87.9361 24.7815C86.5168 27.0542 85.7119 29.6564 85.6 32.3335H102C103.415 32.3335 104.771 32.8954 105.771 33.8956C106.771 34.8958 107.333 36.2523 107.333 37.6668V75.0002C107.333 80.8828 102.549 85.6668 96.6667 85.6668Z" fill="white"/>
</svg>
