<svg width="58" height="40" viewBox="0 0 58 40" fill="none" xmlns="http://www.w3.org/2000/svg">
<path d="M38 14L51.659 7.172C52.1163 6.94351 52.6243 6.83564 53.135 6.85864C53.6456 6.88164 54.1419 7.03474 54.5768 7.30342C55.0117 7.57209 55.3707 7.94743 55.6198 8.39381C55.8688 8.8402 55.9997 9.34283 56 9.854V30.146C55.9997 30.6572 55.8688 31.1598 55.6198 31.6062C55.3707 32.0526 55.0117 32.4279 54.5768 32.6966C54.1419 32.9653 53.6456 33.1184 53.135 33.1414C52.6243 33.1644 52.1163 33.0565 51.659 32.828L38 26V14ZM8 38H32C33.5913 38 35.1174 37.3679 36.2426 36.2426C37.3679 35.1174 38 33.5913 38 32V8C38 6.4087 37.3679 4.88258 36.2426 3.75736C35.1174 2.63214 33.5913 2 32 2H8C6.4087 2 4.88258 2.63214 3.75736 3.75736C2.63214 4.88258 2 6.4087 2 8V32C2 33.5913 2.63214 35.1174 3.75736 36.2426C4.88258 37.3679 6.4087 38 8 38Z" stroke="black" stroke-width="3" stroke-linecap="round" stroke-linejoin="round"/>
</svg>
