<svg width="58" height="58" viewBox="0 0 58 58" fill="none" xmlns="http://www.w3.org/2000/svg">
<path d="M19.9996 29L25.9996 35L37.9996 23M16.5046 7.09098C18.6565 6.91923 20.6994 6.07308 22.3426 4.67298C24.1993 3.08979 26.5595 2.22015 28.9996 2.22015C31.4396 2.22015 33.7998 3.08979 35.6566 4.67298C37.2997 6.07308 39.3426 6.91923 41.4946 7.09098C43.9268 7.28448 46.2105 8.33845 47.9358 10.0637C49.6611 11.789 50.7151 14.0727 50.9086 16.505C51.0803 18.6569 51.9264 20.6998 53.3266 22.343C54.9097 24.1997 55.7794 26.5599 55.7794 29C55.7794 31.4401 54.9097 33.8003 53.3266 35.657C51.9264 37.3001 51.0803 39.3431 50.9086 41.495C50.7151 43.9272 49.6611 46.2109 47.9358 47.9362C46.2105 49.6615 43.9268 50.7155 41.4946 50.909C39.3426 51.0807 37.2997 51.9269 35.6566 53.327C33.7998 54.9102 31.4396 55.7798 28.9996 55.7798C26.5595 55.7798 24.1993 54.9102 22.3426 53.327C20.6994 51.9269 18.6565 51.0807 16.5046 50.909C14.0723 50.7155 11.7886 49.6615 10.0633 47.9362C8.33803 46.2109 7.28406 43.9272 7.09055 41.495C6.9188 39.3431 6.07266 37.3001 4.67255 35.657C3.08936 33.8003 2.21973 31.4401 2.21973 29C2.21973 26.5599 3.08936 24.1997 4.67255 22.343C6.07266 20.6998 6.9188 18.6569 7.09055 16.505C7.28406 14.0727 8.33803 11.789 10.0633 10.0637C11.7886 8.33845 14.0723 7.28448 16.5046 7.09098Z" stroke="black" stroke-width="3" stroke-linecap="round" stroke-linejoin="round"/>
</svg>
