<svg width="64" height="52" viewBox="0 0 64 52" fill="none" xmlns="http://www.w3.org/2000/svg">
<path d="M47 50H62V44C61.9999 42.1296 61.417 40.3057 60.3324 38.7819C59.2478 37.258 57.7154 36.11 55.9482 35.4973C54.1811 34.8845 52.2669 34.8376 50.4718 35.3631C48.6767 35.8885 47.0899 36.9601 45.932 38.429M47 50L45.932 38.429M47 50H17M47 50V44C47 42.032 46.622 40.151 45.932 38.429M45.932 38.429C44.8179 35.6449 42.8953 33.2584 40.412 31.5774C37.9287 29.8963 34.9987 28.9979 32 28.9979C29.0013 28.9979 26.0713 29.8963 23.588 31.5774C21.1047 33.2584 19.1821 35.6449 18.068 38.429M17 50H2V44C2.00014 42.1296 2.58301 40.3057 3.66758 38.7819C4.75216 37.258 6.28456 36.11 8.05175 35.4973C9.81895 34.8845 11.7331 34.8376 13.5282 35.3631C15.3233 35.8885 16.9101 36.9601 18.068 38.429M17 50L18.068 38.429M17 50V44C17 42.032 17.378 40.151 18.068 38.429M41 11C41 13.3869 40.0518 15.6761 38.364 17.364C36.6761 19.0518 34.3869 20 32 20C29.6131 20 27.3239 19.0518 25.636 17.364C23.9482 15.6761 23 13.3869 23 11C23 8.61305 23.9482 6.32387 25.636 4.63604C27.3239 2.94821 29.6131 2 32 2C34.3869 2 36.6761 2.94821 38.364 4.63604C40.0518 6.32387 41 8.61305 41 11ZM59 20C59 21.5913 58.3679 23.1174 57.2426 24.2426C56.1174 25.3679 54.5913 26 53 26C51.4087 26 49.8826 25.3679 48.7574 24.2426C47.6321 23.1174 47 21.5913 47 20C47 18.4087 47.6321 16.8826 48.7574 15.7574C49.8826 14.6321 51.4087 14 53 14C54.5913 14 56.1174 14.6321 57.2426 15.7574C58.3679 16.8826 59 18.4087 59 20ZM17 20C17 21.5913 16.3679 23.1174 15.2426 24.2426C14.1174 25.3679 12.5913 26 11 26C9.4087 26 7.88258 25.3679 6.75736 24.2426C5.63214 23.1174 5 21.5913 5 20C5 18.4087 5.63214 16.8826 6.75736 15.7574C7.88258 14.6321 9.4087 14 11 14C12.5913 14 14.1174 14.6321 15.2426 15.7574C16.3679 16.8826 17 18.4087 17 20Z" stroke="black" stroke-width="3" stroke-linecap="round" stroke-linejoin="round"/>
</svg>
