<svg width="58" height="58" viewBox="0 0 58 58" fill="none" xmlns="http://www.w3.org/2000/svg">
<path d="M2.165 26H8C9.5913 26 11.1174 26.6321 12.2426 27.7574C13.3679 28.8826 14 30.4087 14 32V35C14 36.5913 14.6321 38.1174 15.7574 39.2426C16.8826 40.3679 18.4087 41 20 41C21.5913 41 23.1174 41.6321 24.2426 42.7574C25.3679 43.8826 26 45.4087 26 47V55.835M17 4.805V9.5C17 11.4891 17.7902 13.3968 19.1967 14.8033C20.6032 16.2098 22.5109 17 24.5 17H26C27.5913 17 29.1174 17.6321 30.2426 18.7574C31.3679 19.8826 32 21.4087 32 23C32 24.5913 32.6321 26.1174 33.7574 27.2426C34.8826 28.3679 36.4087 29 38 29C39.5913 29 41.1174 28.3679 42.2426 27.2426C43.3679 26.1174 44 24.5913 44 23C44 21.4087 44.6321 19.8826 45.7574 18.7574C46.8826 17.6321 48.4087 17 50 17H53.192M38 54.464V47C38 45.4087 38.6321 43.8826 39.7574 42.7574C40.8826 41.6321 42.4087 41 44 41H53.192M56 29C56 32.5457 55.3016 36.0567 53.9447 39.3325C52.5879 42.6082 50.5991 45.5847 48.0919 48.0919C45.5847 50.5991 42.6082 52.5879 39.3325 53.9447C36.0567 55.3016 32.5457 56 29 56C25.4543 56 21.9433 55.3016 18.6675 53.9447C15.3918 52.5879 12.4153 50.5991 9.90812 48.0919C7.40093 45.5847 5.41213 42.6082 4.05525 39.3325C2.69838 36.0567 2 32.5457 2 29C2 21.8392 4.84463 14.9716 9.90812 9.90812C14.9716 4.84464 21.8392 2 29 2C36.1608 2 43.0284 4.84464 48.0919 9.90812C53.1554 14.9716 56 21.8392 56 29Z" stroke="black" stroke-width="3" stroke-linecap="round" stroke-linejoin="round"/>
</svg>
