<svg width="72" height="72" viewBox="0 0 72 72" fill="none" xmlns="http://www.w3.org/2000/svg">
<g opacity="0.16">
<path fill-rule="evenodd" clip-rule="evenodd" d="M41.5079 6.98857C42.0402 7.25593 42.4448 7.72345 42.6329 8.28864C42.821 8.85382 42.7773 9.47054 42.5114 10.0036L29.5199 36.0001L42.5159 61.9921C42.651 62.2565 42.7324 62.5451 42.7555 62.8411C42.7785 63.1371 42.7427 63.4348 42.6502 63.717C42.5576 63.9991 42.4101 64.2602 42.2162 64.485C42.0223 64.7099 41.7858 64.8942 41.5203 65.0272C41.2548 65.1602 40.9656 65.2394 40.6694 65.2601C40.3732 65.2809 40.0758 65.2428 39.7944 65.148C39.513 65.0533 39.2531 64.9038 39.0297 64.7081C38.8063 64.5125 38.6239 64.2746 38.4929 64.0081L24.9929 37.0081C24.8362 36.6952 24.7545 36.35 24.7545 36.0001C24.7545 35.6501 24.8362 35.3049 24.9929 34.9921L38.4929 7.99207C38.7603 7.45977 39.2278 7.05521 39.793 6.8671C40.3582 6.67899 40.9749 6.72267 41.5079 6.98857V6.98857Z" fill="black"/>
</g>
</svg>
