<svg width="32" height="32" viewBox="0 0 32 32" fill="none" xmlns="http://www.w3.org/2000/svg">
<circle cx="16" cy="16" r="16" fill="#FD0054"/>
<path d="M16.4719 23.6601C15.4232 23.6601 14.4542 23.4875 13.5649 23.1424C12.6888 22.784 11.9255 22.2862 11.2751 21.6491C10.6246 20.9986 10.1202 20.2354 9.76183 19.3593C9.4167 18.4699 9.24414 17.4943 9.24414 16.4324C9.24414 15.397 9.42998 14.4412 9.80165 13.5652C10.1733 12.6891 10.6844 11.9324 11.3348 11.2953C11.9985 10.6449 12.775 10.1404 13.6644 9.78205C14.567 9.42365 15.5493 9.24445 16.6113 9.24445C17.275 9.24445 17.9254 9.33073 18.5625 9.50329C19.1997 9.67585 19.7904 9.9347 20.3346 10.2798C20.8921 10.6117 21.37 11.0099 21.7682 11.4745L19.6975 13.8439C19.4187 13.5519 19.1201 13.2997 18.8015 13.0873C18.4962 12.8616 18.1577 12.6891 17.786 12.5696C17.4143 12.4501 17.0161 12.3904 16.5913 12.3904C16.0604 12.3904 15.556 12.49 15.0781 12.6891C14.6135 12.8749 14.202 13.147 13.8436 13.5054C13.4985 13.8506 13.2264 14.2753 13.0273 14.7797C12.8281 15.2842 12.7286 15.8483 12.7286 16.4722C12.7286 17.0828 12.8281 17.6403 13.0273 18.1447C13.2264 18.6359 13.5051 19.0606 13.8635 19.419C14.2219 19.7774 14.6533 20.0495 15.1577 20.2354C15.6754 20.4212 16.2462 20.5141 16.8701 20.5141C17.2949 20.5141 17.6997 20.4544 18.0847 20.3349C18.4696 20.2155 18.8214 20.0562 19.14 19.8571C19.4718 19.6447 19.7638 19.4058 20.0161 19.1403L21.6488 21.7287C21.3169 22.1004 20.8722 22.4322 20.3147 22.7243C19.7705 23.0163 19.1599 23.2486 18.4829 23.4212C17.8192 23.5804 17.1489 23.6601 16.4719 23.6601Z" fill="white"/>
</svg>
