<svg width="42" height="32" viewBox="0 0 42 32" fill="none" xmlns="http://www.w3.org/2000/svg">
<path d="M27 16C27 17.5913 26.3679 19.1174 25.2426 20.2426C24.1174 21.3679 22.5913 22 21 22C19.4087 22 17.8826 21.3679 16.7574 20.2426C15.6321 19.1174 15 17.5913 15 16C15 14.4087 15.6321 12.8826 16.7574 11.7574C17.8826 10.6321 19.4087 10 21 10C22.5913 10 24.1174 10.6321 25.2426 11.7574C26.3679 12.8826 27 14.4087 27 16V16Z" stroke="black" stroke-width="3" stroke-linecap="round" stroke-linejoin="round"/>
<path d="M1.91602 16C4.46402 7.886 12.046 2 21 2C29.956 2 37.536 7.886 40.084 16C37.536 24.114 29.956 30 21 30C12.046 30 4.46402 24.114 1.91602 16V16Z" stroke="black" stroke-width="3" stroke-linecap="round" stroke-linejoin="round"/>
</svg>
