<svg width="108" height="86" viewBox="0 0 108 86" fill="none" xmlns="http://www.w3.org/2000/svg">
<path d="M98.3147 73.4428C108.379 62.5202 107.365 48.4935 107.333 48.3335V5.66683C107.333 4.25234 106.771 2.89579 105.771 1.89559C104.771 0.8954 103.415 0.333496 102 0.333496H70.0001C64.1174 0.333496 59.3334 5.1175 59.3334 11.0002V48.3335C59.3334 49.748 59.8953 51.1045 60.8955 52.1047C61.8957 53.1049 63.2522 53.6668 64.6667 53.6668H81.0827C80.97 56.3036 80.1822 58.8672 78.7947 61.1122C76.0854 65.3842 70.9814 68.3015 63.6161 69.7735L59.3334 70.6268V85.6668H64.6667C79.5094 85.6668 90.8321 81.5548 98.3147 73.4428ZM39.6107 73.4428C49.6801 62.5202 48.6614 48.4935 48.6294 48.3335V5.66683C48.6294 4.25234 48.0675 2.89579 47.0673 1.89559C46.0671 0.8954 44.7106 0.333496 43.2961 0.333496H11.2961C5.41339 0.333496 0.629395 5.1175 0.629395 11.0002V48.3335C0.629395 49.748 1.1913 51.1045 2.19149 52.1047C3.19169 53.1049 4.54824 53.6668 5.96273 53.6668H22.3787C22.2661 56.3036 21.4782 58.8672 20.0907 61.1122C17.3814 65.3842 12.2774 68.3015 4.91206 69.7735L0.629395 70.6268V85.6668H5.96273C20.8054 85.6668 32.1281 81.5548 39.6107 73.4428Z" fill="white"/>
</svg>
