<svg width="40" height="40" viewBox="0 0 40 40" fill="none" xmlns="http://www.w3.org/2000/svg">
<path d="M16.65 4.634C17.502 1.122 22.498 1.122 23.35 4.634C23.4778 5.1616 23.7284 5.65156 24.0814 6.064C24.4344 6.47644 24.8798 6.79971 25.3813 7.00749C25.8828 7.21528 26.4263 7.3017 26.9676 7.25974C27.5088 7.21777 28.0325 7.0486 28.496 6.766C31.582 4.886 35.116 8.418 33.236 11.506C32.9538 11.9693 32.7849 12.4927 32.743 13.0335C32.7012 13.5744 32.7875 14.1175 32.9951 14.6188C33.2026 15.12 33.5255 15.5652 33.9375 15.9181C34.3494 16.2711 34.8389 16.5218 35.366 16.65C38.878 17.502 38.878 22.498 35.366 23.35C34.8384 23.4778 34.3484 23.7284 33.936 24.0814C33.5236 24.4344 33.2003 24.8798 32.9925 25.3813C32.7847 25.8828 32.6983 26.4263 32.7403 26.9676C32.7822 27.5088 32.9514 28.0325 33.234 28.496C35.114 31.582 31.582 35.116 28.494 33.236C28.0307 32.9538 27.5073 32.7849 26.9665 32.743C26.4256 32.7012 25.8825 32.7875 25.3812 32.9951C24.88 33.2026 24.4348 33.5255 24.0819 33.9375C23.7289 34.3494 23.4782 34.8389 23.35 35.366C22.498 38.878 17.502 38.878 16.65 35.366C16.5222 34.8384 16.2716 34.3484 15.9186 33.936C15.5656 33.5236 15.1202 33.2003 14.6187 32.9925C14.1172 32.7847 13.5737 32.6983 13.0324 32.7403C12.4912 32.7822 11.9675 32.9514 11.504 33.234C8.418 35.114 4.884 31.582 6.764 28.494C7.0462 28.0307 7.2151 27.5073 7.25697 26.9665C7.29883 26.4256 7.21249 25.8825 7.00494 25.3812C6.7974 24.88 6.47452 24.4348 6.06255 24.0819C5.65057 23.7289 5.16113 23.4782 4.634 23.35C1.122 22.498 1.122 17.502 4.634 16.65C5.1616 16.5222 5.65156 16.2716 6.064 15.9186C6.47644 15.5656 6.79971 15.1202 7.00749 14.6187C7.21528 14.1172 7.3017 13.5737 7.25974 13.0324C7.21777 12.4912 7.0486 11.9675 6.766 11.504C4.886 8.418 8.418 4.884 11.506 6.764C13.498 7.98 16.098 6.904 16.65 4.634Z" stroke="black" stroke-width="3" stroke-linecap="round" stroke-linejoin="round"/>
<path d="M26 20C26 21.5913 25.3679 23.1174 24.2426 24.2426C23.1174 25.3679 21.5913 26 20 26C18.4087 26 16.8826 25.3679 15.7574 24.2426C14.6321 23.1174 14 21.5913 14 20C14 18.4087 14.6321 16.8826 15.7574 15.7574C16.8826 14.6321 18.4087 14 20 14C21.5913 14 23.1174 14.6321 24.2426 15.7574C25.3679 16.8826 26 18.4087 26 20V20Z" stroke="black" stroke-width="3" stroke-linecap="round" stroke-linejoin="round"/>
</svg>
