<svg width="32" height="40" viewBox="0 0 32 40" fill="none" xmlns="http://www.w3.org/2000/svg">
<path d="M24 10C24 12.1217 23.1571 14.1566 21.6569 15.6569C20.1566 17.1571 18.1217 18 16 18C13.8783 18 11.8434 17.1571 10.3431 15.6569C8.84285 14.1566 8 12.1217 8 10C8 7.87827 8.84285 5.84344 10.3431 4.34315C11.8434 2.84285 13.8783 2 16 2C18.1217 2 20.1566 2.84285 21.6569 4.34315C23.1571 5.84344 24 7.87827 24 10V10ZM16 24C12.287 24 8.72601 25.475 6.1005 28.1005C3.475 30.726 2 34.287 2 38H30C30 34.287 28.525 30.726 25.8995 28.1005C23.274 25.475 19.713 24 16 24V24Z" stroke="black" stroke-width="3" stroke-linecap="round" stroke-linejoin="round"/>
</svg>
