<svg width="40" height="35" viewBox="0 0 40 35" fill="none" xmlns="http://www.w3.org/2000/svg">
<path d="M4.63608 4.63602C3.80034 5.47175 3.13739 6.4639 2.68509 7.55584C2.2328 8.64778 2 9.81811 2 11C2 12.1819 2.2328 13.3523 2.68509 14.4442C3.13739 15.5361 3.80034 16.5283 4.63608 17.364L20.0001 32.728L35.3641 17.364C37.0519 15.6762 38.0001 13.387 38.0001 11C38.0001 8.61305 37.0519 6.32385 35.3641 4.63602C33.6762 2.94818 31.387 1.99996 29.0001 1.99996C26.6131 1.99996 24.3239 2.94818 22.6361 4.63602L20.0001 7.27202L17.3641 4.63602C16.5283 3.80028 15.5362 3.13733 14.4443 2.68503C13.3523 2.23273 12.182 1.99994 11.0001 1.99994C9.81817 1.99994 8.64784 2.23273 7.5559 2.68503C6.46396 3.13733 5.47181 3.80028 4.63608 4.63602V4.63602Z" stroke="black" stroke-width="3" stroke-linecap="round" stroke-linejoin="round"/>
</svg>
