<svg width="40" height="40" viewBox="0 0 40 40" fill="none" xmlns="http://www.w3.org/2000/svg">
<path d="M15.326 30H24.672H15.326ZM20 2V4V2ZM32.728 7.272L31.314 8.686L32.728 7.272ZM38 20H36H38ZM4 20H2H4ZM8.686 8.686L7.272 7.272L8.686 8.686ZM12.928 27.072C11.5297 25.6734 10.5776 23.8915 10.192 21.9518C9.80632 20.0121 10.0045 18.0015 10.7615 16.1744C11.5184 14.3473 12.8001 12.7857 14.4446 11.687C16.089 10.5883 18.0223 10.0019 20 10.0019C21.9777 10.0019 23.911 10.5883 25.5554 11.687C27.1999 12.7857 28.4816 14.3473 29.2385 16.1744C29.9955 18.0015 30.1937 20.0121 29.808 21.9518C29.4224 23.8915 28.4703 25.6734 27.072 27.072L25.976 28.166C25.3494 28.7927 24.8524 29.5367 24.5134 30.3555C24.1743 31.1742 23.9999 32.0518 24 32.938V34C24 35.0609 23.5786 36.0783 22.8284 36.8284C22.0783 37.5786 21.0609 38 20 38C18.9391 38 17.9217 37.5786 17.1716 36.8284C16.4214 36.0783 16 35.0609 16 34V32.938C16 31.148 15.288 29.43 14.024 28.166L12.928 27.072Z" stroke="black" stroke-width="3" stroke-linecap="round" stroke-linejoin="round"/>
</svg>
