<svg width="56" height="56" viewBox="0 0 56 56" fill="none" xmlns="http://www.w3.org/2000/svg">
<path d="M14.0001 8.46417C12.9191 9.21594 12.0361 10.2182 11.4266 11.3854C10.8171 12.5526 10.4992 13.8499 10.5001 15.1667C10.4993 16.5758 10.8634 17.9611 11.5569 19.1878C12.2504 20.4145 13.2496 21.4407 14.4574 22.1667M42.0001 8.46417C43.0811 9.21594 43.9641 10.2182 44.5736 11.3854C45.1831 12.5526 45.501 13.8499 45.5001 15.1667C45.501 16.4834 45.1831 17.7808 44.5736 18.9479C43.9641 20.1151 43.0811 21.1174 42.0001 21.8692M51.3334 49V47.6C51.3334 42.3733 51.3334 39.76 50.3161 37.7627C49.4213 36.0066 47.9935 34.5788 46.2374 33.684M4.66675 49V47.6C4.66675 42.3733 4.66675 39.76 5.68408 37.7627C6.57889 36.0066 8.00665 34.5788 9.76275 33.684M28.0001 23.3333C29.0725 23.3333 30.1345 23.1221 31.1253 22.7117C32.1162 22.3013 33.0164 21.6997 33.7748 20.9414C34.5331 20.183 35.1347 19.2827 35.5451 18.2919C35.9555 17.3011 36.1667 16.2391 36.1667 15.1667C36.1667 14.0942 35.9555 13.0322 35.5451 12.0414C35.1347 11.0506 34.5331 10.1503 33.7748 9.39196C33.0164 8.63362 32.1162 8.03206 31.1253 7.62165C30.1345 7.21124 29.0725 7 28.0001 7C25.8341 7 23.7569 7.86041 22.2254 9.39196C20.6938 10.9235 19.8334 13.0007 19.8334 15.1667C19.8334 17.3326 20.6938 19.4098 22.2254 20.9414C23.7569 22.4729 25.8341 23.3333 28.0001 23.3333ZM14.0001 46.6667V49H42.0001V46.6667C42.0001 42.3185 42.0001 40.1438 41.2896 38.4277C40.342 36.1409 38.5249 34.3242 36.2379 33.3772C34.5229 32.6667 32.3482 32.6667 28.0001 32.6667C23.6519 32.6667 21.4772 32.6667 19.7622 33.3772C18.6297 33.8462 17.6007 34.5338 16.7339 35.4005C15.8672 36.2673 15.1796 37.2963 14.7106 38.4288C14.0001 40.1427 14.0001 42.3185 14.0001 46.6667Z" stroke="black" stroke-width="3" stroke-linecap="round" stroke-linejoin="round"/>
</svg>
