<svg width="57" height="56" viewBox="0 0 57 56" fill="none" xmlns="http://www.w3.org/2000/svg">
<path d="M34.9353 20.4166C41.3788 31.5769 40.722 44.0182 33.4676 48.2066C26.2133 52.3949 15.1101 46.7447 8.66663 35.5832C2.22313 24.4217 2.87996 11.9816 10.1343 7.79322C17.3886 3.60489 28.493 9.25622 34.9353 20.4166Z" stroke="black" stroke-width="3" stroke-linecap="round" stroke-linejoin="round"/>
<path d="M21.8009 20.4166C15.3574 31.5769 16.0142 44.0182 23.2686 48.2066C30.5229 52.3949 41.6272 46.7436 48.0707 35.5832C54.5142 24.4229 53.8574 11.9816 46.6019 7.79322C39.3499 3.60489 28.2444 9.25622 21.8009 20.4166Z" stroke="black" stroke-width="3" stroke-linecap="round" stroke-linejoin="round"/>
<path d="M28.2118 12.0679C30.7143 14.2939 33.029 17.1137 34.9353 20.4165C41.3788 31.5769 40.722 44.0182 33.4676 48.2065C31.9533 49.0815 30.271 49.5272 28.4976 49.5832" stroke="black" stroke-width="3" stroke-linecap="round" stroke-linejoin="round"/>
</svg>
