<svg width="57" height="56" viewBox="0 0 57 56" fill="none" xmlns="http://www.w3.org/2000/svg">
<path d="M28.5 51.3334C41.387 51.3334 51.8333 40.8871 51.8333 28.0001C51.8333 15.1131 41.387 4.66675 28.5 4.66675C15.613 4.66675 5.16663 15.1131 5.16663 28.0001C5.16663 40.8871 15.613 51.3334 28.5 51.3334Z" stroke="black" stroke-width="3" stroke-linejoin="round"/>
<path d="M28.5 51.3334C37.5206 51.3334 44.8333 44.0207 44.8333 35.0001C44.8333 25.9794 37.5206 18.6667 28.5 18.6667C19.4793 18.6667 12.1666 25.9794 12.1666 35.0001C12.1666 44.0207 19.4793 51.3334 28.5 51.3334Z" stroke="black" stroke-width="3" stroke-linejoin="round"/>
<path d="M28.5 51.3334C30.9753 51.3334 33.3493 50.3501 35.0996 48.5997C36.85 46.8494 37.8333 44.4754 37.8333 42.0001C37.8333 39.5247 36.85 37.1508 35.0996 35.4004C33.3493 33.6501 30.9753 32.6667 28.5 32.6667C26.0246 32.6667 23.6506 33.6501 21.9003 35.4004C20.15 37.1508 19.1666 39.5247 19.1666 42.0001C19.1666 44.4754 20.15 46.8494 21.9003 48.5997C23.6506 50.3501 26.0246 51.3334 28.5 51.3334V51.3334Z" stroke="black" stroke-width="3" stroke-linejoin="round"/>
</svg>
